<svg id="Layer_1" data-name="Layer 1" xmlns="http://www.w3.org/2000/svg" viewBox="0 0 250 250"><defs><style>.cls-1{fill:#3f29ee;}.cls-2{fill:#fff;}.cls-3{fill:#e54822;}.cls-4{fill:#62b8aa;}.cls-5{fill:#f3aeac;}</style></defs><title>Bloc-Course-Ads-2019</title><rect class="cls-1" x="-1.81" y="-1.1" width="251.52" height="254.46"/><path class="cls-2" d="M36.65,34.06a5.92,5.92,0,0,0,3-5.3c0-6-4.44-8.21-9.09-8.21H22.12a.82.82,0,0,0-.84.84V48.46a.86.86,0,0,0,.25.6.81.81,0,0,0,.59.24h9.43c5.38,0,9.54-3.45,9.54-8.5A6.72,6.72,0,0,0,36.65,34.06ZM26.39,25.29a.27.27,0,0,1,.26-.27h3.86c2.35,0,4.19,1,4.19,3.52s-1.52,3.51-4.19,3.51H26.65a.27.27,0,0,1-.26-.27Zm5.37,19.54H26.67a.28.28,0,0,1-.28-.27V37.44a.27.27,0,0,1,.08-.19.25.25,0,0,1,.2-.09H32.5a4,4,0,0,1,4.11,4C36.53,43.77,34.46,44.83,31.76,44.83ZM69.62,33.75a10.52,10.52,0,0,0-9-4.9A10.23,10.23,0,1,0,71.13,39.08a11.46,11.46,0,0,0-1.51-5.33Zm-9,11.08c-3.36,0-5.43-2.64-5.43-5.74s2.07-5.76,5.43-5.76S66,36,66,39.09,63.94,44.83,60.58,44.83ZM47.31,20.55a.81.81,0,0,1,.57.23.76.76,0,0,1,.24.55V48.52a.79.79,0,0,1-.81.78H43.82a.79.79,0,0,1-.81-.78V21.33a.72.72,0,0,1,.24-.55.81.81,0,0,1,.57-.23ZM87.68,42.78l2.45,2.47a.54.54,0,0,1,0,.76,10.76,10.76,0,0,1-7.79,3.29,10.23,10.23,0,1,1,0-20.45A10.78,10.78,0,0,1,90,32a.53.53,0,0,1,.16.41.58.58,0,0,1-.19.4l-2.61,2.31a.59.59,0,0,1-.78,0,6.15,6.15,0,0,0-4.25-1.67,5.42,5.42,0,0,0-5.53,5.62,5.43,5.43,0,0,0,5.53,5.63,5.94,5.94,0,0,0,4.49-1.92.55.55,0,0,1,.41-.18.59.59,0,0,1,.42.17Z"/><rect class="cls-2" x="20.71" y="56.12" width="70.27" height="11.64"/><path class="cls-1" d="M28.77,59.8h.92l-1.28,4.63h-.93l-1.06-3.3-1.06,3.3h-.94L23.14,59.8h.95L24.94,63l1-3.19h.93l1,3.2Z"/><path class="cls-1" d="M32.86,63.51a1.45,1.45,0,0,1-1.46,1,1.63,1.63,0,0,1-1.66-1.72,1.61,1.61,0,0,1,1.58-1.69,1.5,1.5,0,0,1,1.59,1.66c0,.13,0,.26,0,.27H30.6a.78.78,0,0,0,.81.73.71.71,0,0,0,.73-.49Zm-.81-1a.65.65,0,0,0-.71-.64.69.69,0,0,0-.72.64Z"/><path class="cls-1" d="M33.6,64.43V59.7h.85v1.87a1.15,1.15,0,0,1,1-.44,1.5,1.5,0,0,1,1.49,1.68,1.55,1.55,0,0,1-1.52,1.7,1.1,1.1,0,0,1-1-.47v.39Zm1.64-2.52a.92.92,0,1,0,.8.91A.81.81,0,0,0,35.24,61.91Z"/><path class="cls-1" d="M39.27,64.43V59.8h1.66a2.32,2.32,0,0,1,0,4.63Zm1.62-.84a1.48,1.48,0,0,0,0-3h-.73v3Z"/><path class="cls-1" d="M46.84,63.51a1.47,1.47,0,0,1-1.47,1,1.63,1.63,0,0,1-1.66-1.72,1.61,1.61,0,0,1,1.58-1.69,1.5,1.5,0,0,1,1.59,1.66c0,.13,0,.26,0,.27h-2.3a.78.78,0,0,0,.81.73.7.7,0,0,0,.73-.49Zm-.81-1a.66.66,0,0,0-.72-.64.7.7,0,0,0-.72.64Z"/><path class="cls-1" d="M49.29,64.43h-.87l-1.31-3.21h1l.8,2.15.76-2.15h.91Z"/><path class="cls-1" d="M53.85,63.51a1.47,1.47,0,0,1-1.47,1,1.63,1.63,0,0,1-1.66-1.72,1.61,1.61,0,0,1,1.58-1.69,1.5,1.5,0,0,1,1.59,1.66c0,.13,0,.26,0,.27h-2.3a.78.78,0,0,0,.81.73.71.71,0,0,0,.73-.49Zm-.81-1a.66.66,0,0,0-.72-.64.7.7,0,0,0-.72.64Z"/><path class="cls-1" d="M54.58,64.43V59.7h.87v4.73Z"/><path class="cls-1" d="M59.5,62.82a1.69,1.69,0,1,1-1.68-1.7A1.65,1.65,0,0,1,59.5,62.82Zm-.87,0a.82.82,0,1,0-1.63,0,.82.82,0,1,0,1.63,0Z"/><path class="cls-1" d="M60.19,65.67V61.22H61v.39a1.12,1.12,0,0,1,1-.47,1.5,1.5,0,0,1,1.48,1.68A1.55,1.55,0,0,1,62,64.51a1.12,1.12,0,0,1-.92-.39v1.55Zm1.66-3.75a.81.81,0,0,0-.81.9.82.82,0,0,0,.81.91.91.91,0,0,0,0-1.81Z"/><path class="cls-1" d="M67.07,63.51a1.47,1.47,0,0,1-1.47,1A1.63,1.63,0,0,1,64,62.81a1.6,1.6,0,0,1,1.58-1.69,1.49,1.49,0,0,1,1.58,1.66c0,.13,0,.26,0,.27H64.8a.78.78,0,0,0,.81.73.7.7,0,0,0,.73-.49Zm-.81-1a.65.65,0,0,0-.72-.64.7.7,0,0,0-.72.64Z"/><path class="cls-1" d="M69.76,62.08l-.26,0c-.45,0-.83.22-.83.91v1.47H67.8V61.22h.84v.47a1,1,0,0,1,.92-.5h.2Z"/><path class="cls-1" d="M74,60.65v3.78h-.91V60.65H71.61V59.8h3.83v.85Z"/><path class="cls-1" d="M77.5,62.08l-.26,0c-.45,0-.83.22-.83.91v1.47h-.87V61.22h.84v.47a1,1,0,0,1,.92-.5h.2Z"/><path class="cls-1" d="M78.9,62.58l.79-.12c.18,0,.24-.11.24-.23s-.18-.41-.54-.41a.58.58,0,0,0-.62.52L78,62.18a1.28,1.28,0,0,1,1.38-1.06c1,0,1.4.57,1.4,1.22v1.58a3.52,3.52,0,0,0,0,.51H80A2.21,2.21,0,0,1,80,64a1.06,1.06,0,0,1-.95.48,1,1,0,0,1-1.1-1A1,1,0,0,1,78.9,62.58Zm1,.55V63l-.73.11a.39.39,0,0,0-.39.4.37.37,0,0,0,.41.37A.65.65,0,0,0,79.93,63.13Z"/><path class="cls-1" d="M82.27,62.82a.83.83,0,0,0,.82.91.73.73,0,0,0,.74-.54l.76.25a1.48,1.48,0,0,1-1.5,1.09,1.66,1.66,0,0,1-1.69-1.71,1.64,1.64,0,0,1,1.66-1.7,1.46,1.46,0,0,1,1.51,1.08l-.77.26a.71.71,0,0,0-.72-.54A.81.81,0,0,0,82.27,62.82Z"/><path class="cls-1" d="M87.06,62.57l1.32,1.86H87.31l-.85-1.23-.36.38v.85h-.87V59.7h.87v2.71l1.11-1.19h1.14Z"/><path class="cls-2" d="M131.12,25.68c2.88,0,4.51,1.69,4.51,4a3.29,3.29,0,0,1-2.15,3.17,3.5,3.5,0,0,1,2.61,3.51c0,2.4-1.8,4.14-4.58,4.14h-5.72V25.68Zm-.44,6.12a1.86,1.86,0,0,0,2.11-1.86c0-1.13-.73-1.84-2.13-1.84h-2v3.7Zm.29,6.29c1.4,0,2.24-.74,2.24-1.93a1.93,1.93,0,0,0-2.2-2h-2.38v3.91Z"/><path class="cls-2" d="M147.64,37.54A4.62,4.62,0,0,1,143,40.8a5.2,5.2,0,0,1-5.31-5.49,5.16,5.16,0,0,1,5.06-5.41c3.17,0,5.07,2,5.07,5.32,0,.4,0,.82,0,.86h-7.35A2.5,2.5,0,0,0,143,38.42a2.26,2.26,0,0,0,2.34-1.57Zm-2.59-3.36a2.07,2.07,0,0,0-2.3-2,2.24,2.24,0,0,0-2.3,2Z"/><path class="cls-2" d="M152,35.35a2.65,2.65,0,0,0,2.64,2.9A2.35,2.35,0,0,0,157,36.52l2.44.81a4.77,4.77,0,0,1-4.8,3.47,5.32,5.32,0,0,1-5.41-5.45,5.25,5.25,0,0,1,5.32-5.45,4.71,4.71,0,0,1,4.83,3.47l-2.49.83a2.24,2.24,0,0,0-2.28-1.73A2.61,2.61,0,0,0,152,35.35Z"/><path class="cls-2" d="M171.37,35.35a5.39,5.39,0,1,1-10.78,0,5.39,5.39,0,1,1,10.78,0Zm-2.78,0a2.63,2.63,0,1,0-5.22,0,2.63,2.63,0,1,0,5.22,0Z"/><path class="cls-2" d="M173.56,40.49V30.21h2.66v1.25a3.52,3.52,0,0,1,3-1.54,3.17,3.17,0,0,1,3.05,1.71,3.8,3.8,0,0,1,7,2.19v6.67h-2.69v-6.1a1.72,1.72,0,0,0-1.82-1.94,1.89,1.89,0,0,0-1.9,2v6h-2.76v-6.1a1.72,1.72,0,0,0-1.82-1.94,1.87,1.87,0,0,0-1.92,2v6Z"/><path class="cls-2" d="M201.28,37.54a4.62,4.62,0,0,1-4.68,3.26,5.2,5.2,0,0,1-5.3-5.49,5.16,5.16,0,0,1,5-5.41c3.18,0,5.08,2,5.08,5.32,0,.4,0,.82,0,.86H194a2.51,2.51,0,0,0,2.59,2.34A2.26,2.26,0,0,0,199,36.85Zm-2.59-3.36a2.07,2.07,0,0,0-2.3-2,2.22,2.22,0,0,0-2.29,2Z"/><path class="cls-2" d="M211.23,34.58l2.52-.38c.59-.08.78-.38.78-.73,0-.73-.57-1.34-1.74-1.34a1.82,1.82,0,0,0-2,1.67l-2.47-.52c.17-1.61,1.65-3.38,4.41-3.38,3.26,0,4.47,1.84,4.47,3.9v5.06a10.55,10.55,0,0,0,.13,1.63h-2.55a7.19,7.19,0,0,1-.11-1.23,3.43,3.43,0,0,1-3,1.52,3.25,3.25,0,0,1-3.54-3.09C208.15,35.85,209.51,34.83,211.23,34.58Zm3.3,1.75v-.46l-2.32.36a1.3,1.3,0,0,0-1.28,1.29,1.2,1.2,0,0,0,1.34,1.19A2.09,2.09,0,0,0,214.53,36.33Z"/><path class="cls-2" d="M135.38,59.52c0,.69,0,1.44.08,1.86h-2.65a7.17,7.17,0,0,1-.11-1.19,3.23,3.23,0,0,1-2.88,1.44c-2.92,0-5-2.3-5-5.41s2-5.37,4.93-5.37c1.77,0,2.61.73,2.9,1.27V46.25h2.74Zm-5.22-.38c1.42,0,2.52-1.08,2.52-2.94s-1.1-2.87-2.52-2.87a2.58,2.58,0,0,0-2.55,2.89C127.61,58.06,128.69,59.14,130.16,59.14Z"/><path class="cls-2" d="M147.6,58.43a4.62,4.62,0,0,1-4.68,3.26,5.46,5.46,0,0,1-.25-10.9c3.17,0,5.07,2,5.07,5.32,0,.4,0,.82,0,.86h-7.35a2.5,2.5,0,0,0,2.59,2.34,2.28,2.28,0,0,0,2.34-1.57ZM145,55.07a2.07,2.07,0,0,0-2.3-2,2.23,2.23,0,0,0-2.3,2Z"/><path class="cls-2" d="M155.43,61.38h-2.78l-4.2-10.28h3.05L154.05,58l2.45-6.89h2.92Z"/><path class="cls-2" d="M170,58.43a4.62,4.62,0,0,1-4.68,3.26,5.46,5.46,0,0,1-.25-10.9c3.18,0,5.08,2,5.08,5.32,0,.4,0,.82,0,.86h-7.36a2.51,2.51,0,0,0,2.59,2.34,2.26,2.26,0,0,0,2.34-1.57Zm-2.59-3.36a2.07,2.07,0,0,0-2.3-2,2.22,2.22,0,0,0-2.29,2Z"/><path class="cls-2" d="M172.35,61.38V46.25h2.78V61.38Z"/><path class="cls-2" d="M188.1,56.24a5.39,5.39,0,1,1-5.39-5.45A5.28,5.28,0,0,1,188.1,56.24Zm-2.78,0a2.63,2.63,0,1,0-2.61,2.92A2.63,2.63,0,0,0,185.32,56.24Z"/><path class="cls-2" d="M190.3,65.35V51.1H193v1.25a3.6,3.6,0,0,1,3.15-1.48c3,0,4.75,2.3,4.75,5.35s-1.95,5.41-4.85,5.41a3.63,3.63,0,0,1-3-1.26v5Zm5.3-12a2.91,2.91,0,0,0,0,5.78,2.6,2.6,0,0,0,2.55-2.9A2.59,2.59,0,0,0,195.6,53.36Z"/><path class="cls-2" d="M212.29,58.43a4.62,4.62,0,0,1-4.68,3.26,5.46,5.46,0,0,1-.25-10.9c3.18,0,5.08,2,5.08,5.32,0,.4,0,.82,0,.86H205a2.51,2.51,0,0,0,2.59,2.34A2.26,2.26,0,0,0,210,57.74Zm-2.59-3.36a2.07,2.07,0,0,0-2.3-2,2.22,2.22,0,0,0-2.29,2Z"/><path class="cls-2" d="M220.9,53.86a3.82,3.82,0,0,0-.84-.09c-1.42,0-2.65.69-2.65,2.91v4.7h-2.78V51.1h2.7v1.52a3,3,0,0,1,2.92-1.6c.23,0,.44,0,.65,0Z"/><path class="cls-2" d="M222.92,57.72a1.9,1.9,0,1,1-1.9,1.9A1.92,1.92,0,0,1,222.92,57.72Z"/><polygon class="cls-3" points="183.51 192.11 161.54 188.6 154.72 169.2 176.69 172.71 183.51 192.11"/><polygon class="cls-4" points="176.69 172.71 154.72 169.2 183.74 131.01 205.71 134.52 176.69 172.71"/><polygon class="cls-5" points="155.95 113.67 221.73 116.81 227.1 132.1 183.51 192.11 176.69 172.71 205.71 134.52 162.91 133.49 155.95 113.67"/><polygon class="cls-4" points="155.95 113.67 133.98 110.16 199.76 113.3 221.73 116.81 155.95 113.67"/><polygon class="cls-3" points="162.91 133.49 140.94 129.99 133.98 110.16 155.95 113.67 162.91 133.49"/><polygon class="cls-5" points="144.77 94.87 136.6 222.52 119.78 231.27 127.83 103.68 144.77 94.87"/><polygon class="cls-3" points="119.78 231.27 97.81 227.76 105.86 100.17 127.83 103.68 119.78 231.27"/><polygon class="cls-4" points="127.84 103.59 105.94 100.09 122.83 91.32 144.72 94.81 127.84 103.59"/><polygon class="cls-4" points="64.37 207.33 42.4 203.82 85.19 204.85 107.17 208.36 64.37 207.33"/><polygon class="cls-5" points="86.57 149.74 93.43 169.28 64.37 207.33 107.17 208.36 114.13 228.18 48.4 225.18 43.03 209.89 86.57 149.74"/><polygon class="cls-3" points="48.4 225.18 26.43 221.67 21.06 206.38 43.03 209.89 48.4 225.18"/><polygon class="cls-4" points="43.03 209.89 21.06 206.38 64.6 146.24 86.57 149.74 43.03 209.89"/></svg>